<svg xmlns="http://www.w3.org/2000/svg" width="250.814" height="150.13" viewBox="0 0 250.814 150.13">
  <g id="Group_5072" data-name="Group 5072" transform="translate(-54 -110.648)">
    <g id="Group_1" data-name="Group 1" transform="translate(54 110.648)">
      <path id="Path_43" data-name="Path 43" d="M819.412,585.68a12.961,12.961,0,0,1-4.65-11.172,10.477,10.477,0,0,1,7.789-8.895c4.109-.886,8.794,1.567,10.042,5.581.687-7.74,1.479-15.8,5.593-22.394a23.717,23.717,0,0,1,17.173-11,21.28,21.28,0,0,1,18.72,7.642,19.313,19.313,0,0,1,2.375,19.883c-2.25,4.669-6.4,8.143-10.741,10.97A69.32,69.32,0,0,1,818.3,586.664Z" transform="translate(-627.383 -437.423)" fill="#f1f1f1" opacity="0.7"/>
      <path id="Path_44" data-name="Path 44" d="M913.632,545.617a114.383,114.383,0,0,0-33.609,45.445c-.321.786.955,1.128,1.272.351a113.109,113.109,0,0,1,33.269-44.863c.659-.536-.28-1.465-.933-.933Z" transform="translate(-673.851 -442.962)" fill="#fff"/>
      <path id="Path_45" data-name="Path 45" d="M245.741,538.86a17.8,17.8,0,0,0,6.387-15.345c-.7-5.731-5.054-11-10.7-12.217s-12.079,2.152-13.793,7.666c-.944-10.63-2.031-21.706-7.683-30.759a32.575,32.575,0,0,0-23.587-15.112,29.228,29.228,0,0,0-25.711,10.5c-5.991,7.582-7.458,18.6-3.262,27.31,3.091,6.413,8.786,11.185,14.753,15.067a95.212,95.212,0,0,0,65.119,14.246" transform="translate(-165 -391.341)" fill="#f1f1f1" opacity="0.7"/>
      <path id="Path_47" data-name="Path 47" d="M529.727,339.555H424.5V231.589a41.705,41.705,0,0,1,41.658-41.658h21.91a41.705,41.705,0,0,1,41.658,41.658Z" transform="translate(-349.688 -189.931)" fill="#f1f1f1" opacity="0.7"/>
      <path id="Path_48" data-name="Path 48" d="M507.816,339.558H424.5V231.592a41.336,41.336,0,0,1,7.956-24.489c.191-.261.382-.518.579-.773a41.649,41.649,0,0,1,8.866-8.606c.19-.138.381-.274.575-.41a41.56,41.56,0,0,1,9.073-4.745c.19-.072.384-.145.578-.214a41.519,41.519,0,0,1,8.968-2.115c.19-.026.384-.046.579-.066a42.174,42.174,0,0,1,8.967,0c.194.02.389.041.581.067a41.514,41.514,0,0,1,8.966,2.115c.194.069.388.142.579.214a41.454,41.454,0,0,1,8.968,4.675c.194.133.387.269.578.4a42.1,42.1,0,0,1,5.3,4.487,41.6,41.6,0,0,1,3.668,4.195c.2.254.387.511.578.772a41.336,41.336,0,0,1,7.956,24.489Z" transform="translate(-349.688 -189.934)" fill="#dcd8d8" opacity="0.88"/>
      <circle id="Ellipse_3" data-name="Ellipse 3" cx="4.613" cy="4.613" r="4.613" transform="translate(146.741 92.109)" fill="#0076a8"/>
      <path id="Path_49" data-name="Path 49" d="M581.722,474.128h-3.534l-1.682-13.633h5.217Z" transform="translate(-410.304 -327.738)" fill="#ffb8b8"/>
      <path id="Path_50" data-name="Path 50" d="M562.987,504.28H569.8v4.292H558.7A4.292,4.292,0,0,1,562.987,504.28Z" transform="translate(-397.627 -358.9)" fill="#2f2e41"/>
      <path id="Path_51" data-name="Path 51" d="M642.722,474.128h-3.534l-1.682-13.633h5.217Z" transform="translate(-453.718 -327.738)" fill="#ffb8b8"/>
      <path id="Path_52" data-name="Path 52" d="M623.987,504.28H630.8v4.292H619.695A4.292,4.292,0,0,1,623.987,504.28Z" transform="translate(-441.042 -358.9)" fill="#2f2e41"/>
      <path id="Path_53" data-name="Path 53" d="M696.778,435.573a3.1,3.1,0,0,1,1.3-4.567l12.015-33.115,5.912,3.227-13.718,31.646a3.114,3.114,0,0,1-5.509,2.81Z" transform="translate(-543.09 -337.937)" fill="#ffb8b8"/>
      <path id="Path_54" data-name="Path 54" d="M803.089,452.163a3.1,3.1,0,0,1-.834-4.675l-3.722-35.03,6.728.307,1.547,34.457a3.114,3.114,0,0,1-3.719,4.941Z" transform="translate(-615.89 -348.305)" fill="#ffb8b8"/>
      <circle id="Ellipse_4" data-name="Ellipse 4" cx="7.081" cy="7.081" r="7.081" transform="translate(169.385 39.658)" fill="#ffb8b8"/>
      <path id="Path_55" data-name="Path 55" d="M761.48,425.135H740.133l.026-.166c.038-.248,3.8-24.92,1.027-32.991a3.406,3.406,0,0,1,1.75-4.2h0c3.97-1.87,11.591-4.172,18.024,1.415a8.14,8.14,0,0,1,2.727,6.745Z" transform="translate(-574.326 -329.243)" fill="#6cbcdd"/>
      <path id="Path_56" data-name="Path 56" d="M730.628,409.539l-9.61-1.95,4.5-10.675a4.035,4.035,0,0,1,7.814,2.017Z" transform="translate(-560.722 -335.088)" fill="#908dce"/>
      <path id="Path_57" data-name="Path 57" d="M795.428,415l-.578-13.245a4.071,4.071,0,1,1,7.953-1.377l2.172,12.376Z" transform="translate(-613.213 -336.932)" fill="#908dce"/>
      <path id="Path_58" data-name="Path 58" d="M757.931,517.049c3.435,13.082,3.81,29.714,2.883,47.857l-4.613-.577-8.36-34.6-4.613,35.172-5.189-.288c-1.55-19.036-3.06-35.378-.577-46.127Z" transform="translate(-571.487 -422.743)" fill="#2f2e41"/>
      <path id="Path_59" data-name="Path 59" d="M760.784,331.989a2.287,2.287,0,0,1-3.946-1.271,2.318,2.318,0,0,1,0-.448,10.394,10.394,0,0,0,.463-2.524,1.323,1.323,0,0,0-.242-.619c-1.053-1.41-3.524.63-4.517-.646-.609-.782.107-2.014-.361-2.889-.617-1.154-2.444-.585-3.59-1.217-1.275-.7-1.2-2.66-.359-3.849a6.055,6.055,0,0,1,4.591-2.337,12.314,12.314,0,0,1,5.187,1.012,10.366,10.366,0,0,1,4.9,3.4,8.3,8.3,0,0,1,.839,7.064A13.317,13.317,0,0,1,760.784,331.989Z" transform="translate(-579.653 -279.779)" fill="#2f2e41"/>
      <path id="Path_60" data-name="Path 60" d="M478.683,707.879H265.839a.343.343,0,0,1,0-.687H478.683a.343.343,0,1,1,0,.686Z" transform="translate(-236.523 -558.07)" fill="#3f3d56"/>
      <path id="Path_61" data-name="Path 61" d="M536.852,384.783H499.374a1.864,1.864,0,0,1-1.874-1.849V299.28a1.864,1.864,0,0,1,1.874-1.849h37.478a1.864,1.864,0,0,1,1.874,1.849v83.654A1.864,1.864,0,0,1,536.852,384.783Z" transform="translate(-401.643 -266.439)" fill="#fff"/>
      <rect id="Rectangle_3" data-name="Rectangle 3" width="41.226" height="0.577" transform="translate(95.857 58.059)" fill="#ccc"/>
      <rect id="Rectangle_4" data-name="Rectangle 4" width="41.226" height="0.577" transform="translate(96.001 90.956)" fill="#ccc"/>
      <rect id="Rectangle_5" data-name="Rectangle 5" width="0.577" height="87.641" transform="translate(108.83 30.991)" fill="#ccc"/>
      <rect id="Rectangle_6" data-name="Rectangle 6" width="0.577" height="87.641" transform="translate(123.245 30.991)" fill="#ccc"/>
      <path id="Path_46" data-name="Path 46" d="M213.644,483.834a155.776,155.776,0,0,1,21.71,21.557,156.23,156.23,0,0,1,24.452,40.862c.44,1.079-1.312,1.549-1.747.482a155.356,155.356,0,0,0-45.7-61.62c-.9-.737.384-2.012,1.281-1.281Z" transform="translate(-199.317 -398.214)" fill="#fff"/>
      <path id="Path_7508" data-name="Path 7508" d="M.337,7.238A19.675,19.675,0,0,0,12.794.137c.308-.382.884.116.576.5A20.465,20.465,0,0,1,.393,8c-.486.07-.539-.69-.056-.759Z" transform="matrix(0.53, -0.848, 0.848, 0.53, 45.164, 127.202)" fill="#fff"/>
      <path id="Path_7509" data-name="Path 7509" d="M1.153.092a16.654,16.654,0,0,0,9.536,1.841c.9-.076.993.684.1.759A18.714,18.714,0,0,1,.235.668C-.047.528-.079.293.162.131A1.165,1.165,0,0,1,1.153.092Z" transform="translate(35.495 107.247) rotate(-104)" fill="#fff"/>
    </g>
    <path id="Path_7503" data-name="Path 7503" d="M4.748,14.822A11.585,11.585,0,0,1,1.252.234c.253-.5,1.034-.125.781.371a10.727,10.727,0,0,0,3.28,13.563C5.763,14.494,5.2,15.146,4.748,14.822Z" transform="translate(72.484 236.693) rotate(-73)" fill="#fff"/>
    <path id="Path_7504" data-name="Path 7504" d="M.382,8.214A22.328,22.328,0,0,0,14.52.155c.35-.433,1,.132.654.565A23.225,23.225,0,0,1,.445,9.075c-.552.079-.612-.783-.063-.862Z" transform="translate(279.888 247.628) rotate(17)" fill="#fff"/>
    <path id="Path_7505" data-name="Path 7505" d="M1.309.1a18.9,18.9,0,0,0,10.822,2.09c1.016-.086,1.126.777.117.862A21.238,21.238,0,0,1,.266.758C-.054.6-.09.332.184.149A1.321,1.321,0,0,1,1.309.1Z" transform="translate(291.309 236.244) rotate(-16)" fill="#fff"/>
    <path id="Path_7507" data-name="Path 7507" d="M4.748,14.822A11.585,11.585,0,0,1,1.252.234c.253-.5,1.034-.125.781.371a10.727,10.727,0,0,0,3.28,13.563C5.763,14.494,5.2,15.146,4.748,14.822Z" transform="translate(64.939 227.58) rotate(-73)" fill="#fff"/>
    <path id="Path_7510" data-name="Path 7510" d="M.336,8.307A19.2,19.2,0,0,0,12.756.157c.307-.438.881.134.575.571A19.954,19.954,0,0,1,.391,9.179c-.485.08-.538-.792-.056-.872Z" transform="translate(276.894 244.507) rotate(-99)" fill="#fff"/>
    <path id="Path_7511" data-name="Path 7511" d="M.179,6.952c2.6-.687,4.957-3.123,6.608-6.821.163-.367.469.112.306.478C5.371,4.452,2.913,6.977.208,7.681c-.258.067-.286-.663-.03-.729Z" transform="translate(299.413 223.153) rotate(111)" fill="#fff"/>
  </g>
</svg>
