<svg xmlns="http://www.w3.org/2000/svg" width="130.571" height="53.105" viewBox="0 0 130.571 53.105">
  <g id="whitelogo" transform="translate(-234.419 -274.18)">
    <path id="Path_5247" data-name="Path 5247" d="M234.463,309.825h33.176V317.2h-25.8V343h-7.373Z" transform="translate(-0.036 -29.196)" fill="#fff"/>
    <path id="Path_5248" data-name="Path 5248" d="M304.845,400.649h20.443V380.208h-7.373v13.07h-13.07Z" transform="translate(-57.684 -86.846)" fill="#fff"/>
    <g id="Group_3979" data-name="Group 3979" transform="translate(275.009 280.553)">
      <path id="Path_5249" data-name="Path 5249" d="M458.772,327.252V311.143h6.4a8.739,8.739,0,0,1,3.116.483,3.891,3.891,0,0,1,1.908,1.461,4.375,4.375,0,0,1,.652,2.476,2.976,2.976,0,0,1-.471,1.739,3.743,3.743,0,0,1-1.123,1.075q-.652.4-1.232.688l-.386-.7a5.514,5.514,0,0,1,2.053.616,3.94,3.94,0,0,1,1.473,1.365,3.87,3.87,0,0,1,.555,2.125,4.472,4.472,0,0,1-.773,2.717,4.542,4.542,0,0,1-2.125,1.558,8.62,8.62,0,0,1-3.043.507Zm3.285-9.588h3.381a3.147,3.147,0,0,0,1-.157,1.575,1.575,0,0,0,.773-.556,2.315,2.315,0,0,0-.338-2.741,2.888,2.888,0,0,0-1.655-.435h-3.164Zm.024,6.956h3.551a4.452,4.452,0,0,0,1.34-.193,1.971,1.971,0,0,0,1-.7,2.264,2.264,0,0,0,.386-1.4,2.206,2.206,0,0,0-.241-1.1,1.723,1.723,0,0,0-.64-.652,2.688,2.688,0,0,0-.905-.314,6.176,6.176,0,0,0-1.014-.084h-3.478Z" transform="translate(-458.772 -310.829)" fill="#fff"/>
      <path id="Path_5250" data-name="Path 5250" d="M544.074,327.252V311.143h7.511a6.039,6.039,0,0,1,4.057,1.244,4.649,4.649,0,0,1,1.449,3.731,5.341,5.341,0,0,1-.471,2.21,4.4,4.4,0,0,1-3.586,2.621l.024-1.087,4.83,7.39h-4.13l-4.251-7.125,1.473,1.3h-3.623v5.82Zm3.285-8.356h3.526a2.9,2.9,0,0,0,2-.628,2.534,2.534,0,0,0,.7-1.98,2.709,2.709,0,0,0-.58-1.86,2.338,2.338,0,0,0-1.836-.652h-3.816Z" transform="translate(-528.641 -310.829)" fill="#fff"/>
      <path id="Path_5251" data-name="Path 5251" d="M633.113,327.252V311.143h3.309v16.109Z" transform="translate(-601.571 -310.829)" fill="#fff"/>
      <path id="Path_5252" data-name="Path 5252" d="M668.756,327.252V311.143h6.062q4.008,0,5.929,2.029t1.92,6.014q0,3.985-1.92,6.026t-5.929,2.041Zm3.284-2.632h2.415a4.736,4.736,0,0,0,3.647-1.3,7.667,7.667,0,0,0,0-8.26,4.736,4.736,0,0,0-3.647-1.3H672.04Z" transform="translate(-630.766 -310.829)" fill="#fff"/>
      <path id="Path_5253" data-name="Path 5253" d="M763.545,326.121a9.193,9.193,0,0,1-4.154-.87,5.9,5.9,0,0,1-2.669-2.717,12.607,12.607,0,0,1,0-9.5,5.954,5.954,0,0,1,2.669-2.741,9.03,9.03,0,0,1,4.13-.881,14.155,14.155,0,0,1,5.579,1.135v3.067a21.757,21.757,0,0,0-2.608-1.135,7.637,7.637,0,0,0-2.56-.435,5.711,5.711,0,0,0-2.645.556,3.524,3.524,0,0,0-1.618,1.811,8.589,8.589,0,0,0-.543,3.357,8.343,8.343,0,0,0,.555,3.333,3.667,3.667,0,0,0,1.606,1.823,5.24,5.24,0,0,0,2.524.568,8.767,8.767,0,0,0,1.413-.109,6.556,6.556,0,0,0,1.244-.326V319.7h-3.019V317.04h6.3v7.487a13.82,13.82,0,0,1-3.019,1.183A12.563,12.563,0,0,1,763.545,326.121Z" transform="translate(-702.056 -309.408)" fill="#fff"/>
      <path id="Path_5254" data-name="Path 5254" d="M850.3,327.252V311.143h10.8v2.633h-7.487v4.081h6.521v2.657h-6.545v4.106H861.1v2.632Z" transform="translate(-779.469 -310.829)" fill="#fff"/>
    </g>
    <g id="Group_3980" data-name="Group 3980" transform="translate(274.893 300.34)">
      <path id="Path_5255" data-name="Path 5255" d="M458.134,432.085V418.777h1.429v5.986h7.047v-5.986h1.429v13.308H466.61v-5.966h-7.047v5.966Z" transform="translate(-458.134 -418.777)" fill="#fff"/>
      <path id="Path_5256" data-name="Path 5256" d="M546.9,432.085V418.777h8.358v1.357h-6.928v4.589h6.094v1.4h-6.094v4.609h6.928v1.357Z" transform="translate(-530.84 -418.777)" fill="#fff"/>
      <path id="Path_5257" data-name="Path 5257" d="M618.879,432.085l5.28-13.308h1.429l5.26,13.308h-1.528l-4.586-11.971.3-.04-4.605,12.011Zm2.323-4.15.615-1.377h6.491l.1,1.377Z" transform="translate(-589.797 -418.777)" fill="#fff"/>
      <path id="Path_5258" data-name="Path 5258" d="M711.924,432.085V418.777h1.429v11.911h6.769v1.4Z" transform="translate(-666.009 -418.777)" fill="#fff"/>
      <path id="Path_5259" data-name="Path 5259" d="M773.447,432.085V420.134h-4.685v-1.357h10.779v1.357h-4.665v11.951Z" transform="translate(-712.564 -418.777)" fill="#fff"/>
      <path id="Path_5260" data-name="Path 5260" d="M855.224,432.085V418.777h1.429v5.986H863.7v-5.986h1.43v13.308H863.7v-5.966h-7.047v5.966Z" transform="translate(-783.383 -418.777)" fill="#fff"/>
    </g>
    <g id="Group_3981" data-name="Group 3981" transform="translate(234.419 319.769)">
      <path id="Path_5261" data-name="Path 5261" d="M234.419,532.519v-5.805h.765V529.1h3.007v-2.384h.766v5.805h-.766v-2.736h-3.007v2.736Z" transform="translate(-234.419 -526.615)" fill="#fff"/>
      <path id="Path_5262" data-name="Path 5262" d="M270.527,537.977l.734.091a1.8,1.8,0,0,1-.643,1,2.174,2.174,0,0,1-2.658-.212,2.225,2.225,0,0,1-.539-1.594,2.329,2.329,0,0,1,.545-1.647,1.84,1.84,0,0,1,1.413-.586,1.789,1.789,0,0,1,1.374.574,2.286,2.286,0,0,1,.533,1.616q0,.064,0,.19h-3.126a1.621,1.621,0,0,0,.391,1.061,1.162,1.162,0,0,0,.876.368,1.084,1.084,0,0,0,.667-.206A1.366,1.366,0,0,0,270.527,537.977Zm-2.333-1.152h2.341a1.424,1.424,0,0,0-.269-.8,1.086,1.086,0,0,0-.88-.412,1.127,1.127,0,0,0-.823.329A1.3,1.3,0,0,0,268.194,536.825Z" transform="translate(-261.45 -533.427)" fill="#fff"/>
      <path id="Path_5263" data-name="Path 5263" d="M297.9,538.813a2.639,2.639,0,0,1-.76.475,2.184,2.184,0,0,1-.784.139,1.52,1.52,0,0,1-1.062-.339,1.119,1.119,0,0,1-.371-.865,1.174,1.174,0,0,1,.507-.974,1.73,1.73,0,0,1,.511-.233,4.976,4.976,0,0,1,.631-.107,6.473,6.473,0,0,0,1.267-.246c0-.1,0-.16,0-.186a.787.787,0,0,0-.2-.614,1.185,1.185,0,0,0-.809-.242,1.253,1.253,0,0,0-.74.176,1.077,1.077,0,0,0-.353.624l-.695-.095a1.735,1.735,0,0,1,.312-.723,1.366,1.366,0,0,1,.627-.423,2.8,2.8,0,0,1,.951-.149,2.518,2.518,0,0,1,.872.127,1.15,1.15,0,0,1,.494.319,1.125,1.125,0,0,1,.221.485,4.022,4.022,0,0,1,.036.657v.95a10.128,10.128,0,0,0,.045,1.258,1.584,1.584,0,0,0,.179.5h-.742A1.517,1.517,0,0,1,297.9,538.813Zm-.059-1.592a5.164,5.164,0,0,1-1.16.269,2.652,2.652,0,0,0-.62.143.624.624,0,0,0-.164,1.045.924.924,0,0,0,.629.19,1.458,1.458,0,0,0,.73-.18,1.107,1.107,0,0,0,.47-.493,1.728,1.728,0,0,0,.114-.713Z" transform="translate(-283.979 -533.427)" fill="#fff"/>
      <path id="Path_5264" data-name="Path 5264" d="M323.7,532.519v-5.805h.71v5.805Z" transform="translate(-307.544 -526.615)" fill="#fff"/>
      <path id="Path_5265" data-name="Path 5265" d="M336.172,532.472l.1.629a2.626,2.626,0,0,1-.537.063,1.211,1.211,0,0,1-.6-.123.685.685,0,0,1-.3-.323,2.554,2.554,0,0,1-.087-.842v-2.42h-.521V528.9h.521v-1.041l.706-.428V528.9h.714v.554h-.714v2.459a1.242,1.242,0,0,0,.037.392.3.3,0,0,0,.122.138.472.472,0,0,0,.243.052A2.332,2.332,0,0,0,336.172,532.472Z" transform="translate(-316.172 -527.206)" fill="#fff"/>
      <path id="Path_5266" data-name="Path 5266" d="M351.482,532.519v-5.805h.71V528.8a1.585,1.585,0,0,1,1.255-.578,1.685,1.685,0,0,1,.809.184,1.08,1.08,0,0,1,.491.509,2.354,2.354,0,0,1,.148.942v2.665h-.71v-2.665a1.1,1.1,0,0,0-.231-.778.857.857,0,0,0-.653-.244,1.149,1.149,0,0,0-.594.164.928.928,0,0,0-.4.446,2.052,2.052,0,0,0-.119.776v2.3Z" transform="translate(-330.303 -526.615)" fill="#fff"/>
      <path id="Path_5267" data-name="Path 5267" d="M380.762,537.791l.7.091a1.82,1.82,0,0,1-.586,1.135,1.7,1.7,0,0,1-1.158.41,1.8,1.8,0,0,1-1.383-.564,2.3,2.3,0,0,1-.523-1.618,2.933,2.933,0,0,1,.225-1.192,1.572,1.572,0,0,1,.685-.766,2.025,2.025,0,0,1,1-.255,1.737,1.737,0,0,1,1.117.346,1.591,1.591,0,0,1,.556.984l-.691.107a1.153,1.153,0,0,0-.349-.638.9.9,0,0,0-.606-.214,1.1,1.1,0,0,0-.872.386,1.836,1.836,0,0,0-.335,1.222,1.9,1.9,0,0,0,.323,1.232,1.052,1.052,0,0,0,.845.384,1,1,0,0,0,.7-.257A1.28,1.28,0,0,0,380.762,537.791Z" transform="translate(-351.868 -533.427)" fill="#fff"/>
      <path id="Path_5268" data-name="Path 5268" d="M405.673,538.813a2.633,2.633,0,0,1-.76.475,2.181,2.181,0,0,1-.784.139,1.52,1.52,0,0,1-1.061-.339,1.119,1.119,0,0,1-.371-.865,1.175,1.175,0,0,1,.507-.974,1.729,1.729,0,0,1,.511-.233,4.986,4.986,0,0,1,.632-.107,6.474,6.474,0,0,0,1.267-.246c0-.1,0-.16,0-.186a.787.787,0,0,0-.2-.614,1.185,1.185,0,0,0-.809-.242,1.253,1.253,0,0,0-.74.176,1.078,1.078,0,0,0-.353.624l-.695-.095a1.733,1.733,0,0,1,.312-.723,1.364,1.364,0,0,1,.627-.423,2.794,2.794,0,0,1,.951-.149,2.521,2.521,0,0,1,.872.127,1.149,1.149,0,0,1,.493.319,1.124,1.124,0,0,1,.221.485,4.028,4.028,0,0,1,.035.657v.95a10.117,10.117,0,0,0,.045,1.258,1.593,1.593,0,0,0,.179.5h-.742A1.514,1.514,0,0,1,405.673,538.813Zm-.059-1.592a5.166,5.166,0,0,1-1.16.269,2.654,2.654,0,0,0-.62.143.609.609,0,0,0-.379.57.608.608,0,0,0,.215.475.924.924,0,0,0,.63.19,1.459,1.459,0,0,0,.73-.18,1.106,1.106,0,0,0,.47-.493,1.727,1.727,0,0,0,.115-.713Z" transform="translate(-372.252 -533.427)" fill="#fff"/>
      <path id="Path_5269" data-name="Path 5269" d="M431.512,539.332v-4.205h.639v.637a1.745,1.745,0,0,1,.452-.59.789.789,0,0,1,.456-.142,1.383,1.383,0,0,1,.73.23l-.245.661a1.017,1.017,0,0,0-.521-.154.675.675,0,0,0-.418.141.759.759,0,0,0-.264.39,2.783,2.783,0,0,0-.119.832v2.2Z" transform="translate(-395.854 -533.427)" fill="#fff"/>
      <path id="Path_5270" data-name="Path 5270" d="M450.91,537.977l.734.091a1.8,1.8,0,0,1-.643,1,2.174,2.174,0,0,1-2.658-.212,2.226,2.226,0,0,1-.539-1.594,2.33,2.33,0,0,1,.545-1.647,1.84,1.84,0,0,1,1.413-.586,1.789,1.789,0,0,1,1.373.574,2.286,2.286,0,0,1,.533,1.616c0,.042,0,.106,0,.19h-3.126a1.62,1.62,0,0,0,.391,1.061,1.161,1.161,0,0,0,.876.368,1.083,1.083,0,0,0,.667-.206A1.366,1.366,0,0,0,450.91,537.977Zm-2.332-1.152h2.34a1.426,1.426,0,0,0-.268-.8,1.087,1.087,0,0,0-.88-.412,1.127,1.127,0,0,0-.823.329A1.3,1.3,0,0,0,448.578,536.825Z" transform="translate(-409.199 -533.427)" fill="#fff"/>
      <path id="Path_5271" data-name="Path 5271" d="M495.362,530.036l.765.194a2.587,2.587,0,0,1-.866,1.444,2.381,2.381,0,0,1-1.529.5,2.74,2.74,0,0,1-1.521-.382,2.384,2.384,0,0,1-.892-1.107,3.957,3.957,0,0,1-.306-1.556,3.431,3.431,0,0,1,.345-1.582,2.371,2.371,0,0,1,.983-1.026,2.867,2.867,0,0,1,1.4-.35,2.365,2.365,0,0,1,1.46.444,2.3,2.3,0,0,1,.825,1.247l-.754.178a1.8,1.8,0,0,0-.584-.923,1.553,1.553,0,0,0-.963-.289,1.867,1.867,0,0,0-1.115.321,1.694,1.694,0,0,0-.629.861,3.475,3.475,0,0,0-.181,1.115,3.551,3.551,0,0,0,.215,1.293,1.6,1.6,0,0,0,.669.825,1.87,1.87,0,0,0,.983.273,1.644,1.644,0,0,0,1.089-.372A1.909,1.909,0,0,0,495.362,530.036Z" transform="translate(-444.59 -526.167)" fill="#fff"/>
      <path id="Path_5272" data-name="Path 5272" d="M525.215,537.229a2.171,2.171,0,0,1,.647-1.731,1.946,1.946,0,0,1,1.318-.467,1.877,1.877,0,0,1,1.413.568,2.167,2.167,0,0,1,.549,1.57,2.79,2.79,0,0,1-.243,1.277,1.719,1.719,0,0,1-.707.723,2.049,2.049,0,0,1-1.012.258,1.88,1.88,0,0,1-1.422-.566A2.266,2.266,0,0,1,525.215,537.229Zm.73,0a1.8,1.8,0,0,0,.351,1.21,1.167,1.167,0,0,0,1.764,0,1.838,1.838,0,0,0,.351-1.232,1.744,1.744,0,0,0-.353-1.182,1.169,1.169,0,0,0-1.763,0A1.789,1.789,0,0,0,525.945,537.229Z" transform="translate(-472.605 -533.427)" fill="#fff"/>
      <path id="Path_5273" data-name="Path 5273" d="M554.2,539.332v-4.205h.635v.59a1.5,1.5,0,0,1,.525-.5,1.474,1.474,0,0,1,.746-.188,1.377,1.377,0,0,1,.764.194,1.04,1.04,0,0,1,.42.543,1.5,1.5,0,0,1,1.295-.737,1.274,1.274,0,0,1,.959.346,1.485,1.485,0,0,1,.336,1.067v2.887h-.707v-2.649a1.965,1.965,0,0,0-.069-.616.6.6,0,0,0-.251-.3.78.78,0,0,0-.426-.115.989.989,0,0,0-.734.3,1.3,1.3,0,0,0-.292.944v2.443h-.71V536.6a1.208,1.208,0,0,0-.174-.713.658.658,0,0,0-.568-.237,1.031,1.031,0,0,0-.554.158.9.9,0,0,0-.369.464,2.619,2.619,0,0,0-.114.879v2.182Z" transform="translate(-496.349 -533.427)" fill="#fff"/>
      <path id="Path_5274" data-name="Path 5274" d="M594.1,540.943v-5.817h.647v.546a1.6,1.6,0,0,1,.517-.481,1.419,1.419,0,0,1,.7-.16,1.653,1.653,0,0,1,.947.277,1.7,1.7,0,0,1,.62.782,2.863,2.863,0,0,1,.209,1.107,2.823,2.823,0,0,1-.231,1.162,1.745,1.745,0,0,1-.671.792,1.722,1.722,0,0,1-.926.275,1.335,1.335,0,0,1-.637-.15,1.452,1.452,0,0,1-.464-.38v2.047Zm.643-3.691a1.834,1.834,0,0,0,.328,1.2,1,1,0,0,0,.793.388,1.026,1.026,0,0,0,.811-.4,1.912,1.912,0,0,0,.337-1.246,1.862,1.862,0,0,0-.329-1.2.991.991,0,0,0-.787-.4,1.022,1.022,0,0,0-.8.426A1.908,1.908,0,0,0,594.742,537.252Z" transform="translate(-529.026 -533.427)" fill="#fff"/>
      <path id="Path_5275" data-name="Path 5275" d="M623.27,538.813a2.635,2.635,0,0,1-.76.475,2.182,2.182,0,0,1-.784.139,1.52,1.52,0,0,1-1.061-.339,1.118,1.118,0,0,1-.371-.865,1.149,1.149,0,0,1,.14-.564,1.162,1.162,0,0,1,.367-.41,1.724,1.724,0,0,1,.511-.233,4.957,4.957,0,0,1,.631-.107,6.466,6.466,0,0,0,1.267-.246c0-.1,0-.16,0-.186a.787.787,0,0,0-.2-.614,1.185,1.185,0,0,0-.809-.242,1.252,1.252,0,0,0-.74.176,1.077,1.077,0,0,0-.353.624l-.694-.095a1.736,1.736,0,0,1,.312-.723,1.362,1.362,0,0,1,.628-.423,2.794,2.794,0,0,1,.951-.149,2.521,2.521,0,0,1,.872.127,1.15,1.15,0,0,1,.493.319,1.126,1.126,0,0,1,.221.485,4.024,4.024,0,0,1,.036.657v.95a10.117,10.117,0,0,0,.045,1.258,1.584,1.584,0,0,0,.179.5h-.742A1.529,1.529,0,0,1,623.27,538.813Zm-.059-1.592a5.173,5.173,0,0,1-1.16.269,2.656,2.656,0,0,0-.62.143.617.617,0,0,0-.28.231.631.631,0,0,0,.117.814.923.923,0,0,0,.629.19,1.455,1.455,0,0,0,.73-.18,1.106,1.106,0,0,0,.47-.493,1.733,1.733,0,0,0,.115-.713Z" transform="translate(-550.482 -533.427)" fill="#fff"/>
      <path id="Path_5276" data-name="Path 5276" d="M649.153,539.332v-4.205h.639v.6a1.506,1.506,0,0,1,1.334-.693,1.743,1.743,0,0,1,.7.137,1.093,1.093,0,0,1,.475.358,1.379,1.379,0,0,1,.221.527,4.113,4.113,0,0,1,.039.693v2.586h-.71v-2.558a1.922,1.922,0,0,0-.083-.652.687.687,0,0,0-.294-.344.933.933,0,0,0-.5-.129,1.148,1.148,0,0,0-.783.289,1.429,1.429,0,0,0-.33,1.1v2.3Z" transform="translate(-574.12 -533.427)" fill="#fff"/>
      <path id="Path_5277" data-name="Path 5277" d="M676.7,527.534v-.82h.711v.82Zm0,4.986v-4.205h.711v4.205Z" transform="translate(-596.684 -526.615)" fill="#fff"/>
      <path id="Path_5278" data-name="Path 5278" d="M687.824,537.229a2.171,2.171,0,0,1,.647-1.731,1.946,1.946,0,0,1,1.318-.467,1.877,1.877,0,0,1,1.413.568,2.166,2.166,0,0,1,.549,1.57,2.79,2.79,0,0,1-.243,1.277,1.721,1.721,0,0,1-.706.723,2.05,2.05,0,0,1-1.012.258,1.881,1.881,0,0,1-1.423-.566A2.268,2.268,0,0,1,687.824,537.229Zm.73,0a1.8,1.8,0,0,0,.351,1.21,1.167,1.167,0,0,0,1.764,0,1.838,1.838,0,0,0,.351-1.232,1.743,1.743,0,0,0-.353-1.182,1.169,1.169,0,0,0-1.762,0A1.788,1.788,0,0,0,688.554,537.229Z" transform="translate(-605.795 -533.427)" fill="#fff"/>
      <path id="Path_5279" data-name="Path 5279" d="M716.813,539.332v-4.205h.639v.6a1.506,1.506,0,0,1,1.334-.693,1.743,1.743,0,0,1,.7.137,1.1,1.1,0,0,1,.476.358,1.383,1.383,0,0,1,.221.527,4.1,4.1,0,0,1,.039.693v2.586h-.711v-2.558a1.925,1.925,0,0,0-.083-.652.685.685,0,0,0-.294-.344.933.933,0,0,0-.5-.129,1.149,1.149,0,0,0-.784.289,1.431,1.431,0,0,0-.329,1.1v2.3Z" transform="translate(-629.539 -533.427)" fill="#fff"/>
      <path id="Path_5280" data-name="Path 5280" d="M757.529,532.071V528.42H756.9v-.554h.627v-.447a1.962,1.962,0,0,1,.076-.63.908.908,0,0,1,.361-.449,1.3,1.3,0,0,1,.724-.172,3.494,3.494,0,0,1,.663.071l-.107.622a2.422,2.422,0,0,0-.418-.04.621.621,0,0,0-.458.139.753.753,0,0,0-.134.519v.388h.817v.554h-.817v3.651Z" transform="translate(-662.375 -526.167)" fill="#fff"/>
      <path id="Path_5281" data-name="Path 5281" d="M773.064,537.229a2.171,2.171,0,0,1,.647-1.731,1.947,1.947,0,0,1,1.318-.467,1.877,1.877,0,0,1,1.413.568,2.167,2.167,0,0,1,.548,1.57,2.793,2.793,0,0,1-.243,1.277,1.721,1.721,0,0,1-.707.723,2.05,2.05,0,0,1-1.012.258,1.88,1.88,0,0,1-1.423-.566A2.268,2.268,0,0,1,773.064,537.229Zm.73,0a1.794,1.794,0,0,0,.352,1.21,1.167,1.167,0,0,0,1.764,0,1.837,1.837,0,0,0,.351-1.232,1.743,1.743,0,0,0-.353-1.182,1.169,1.169,0,0,0-1.762,0A1.787,1.787,0,0,0,773.794,537.229Z" transform="translate(-675.613 -533.427)" fill="#fff"/>
      <path id="Path_5282" data-name="Path 5282" d="M802.01,539.332v-4.205h.64v.637a1.742,1.742,0,0,1,.451-.59.79.79,0,0,1,.456-.142,1.383,1.383,0,0,1,.73.23l-.245.661a1.015,1.015,0,0,0-.521-.154.674.674,0,0,0-.418.141.761.761,0,0,0-.265.39,2.8,2.8,0,0,0-.118.832v2.2Z" transform="translate(-699.322 -533.427)" fill="#fff"/>
      <path id="Path_5283" data-name="Path 5283" d="M835.031,532.519v-5.805h.766v5.12h2.849v.685Z" transform="translate(-726.369 -526.615)" fill="#fff"/>
      <path id="Path_5284" data-name="Path 5284" d="M862.251,527.534v-.82h.711v.82Zm0,4.986v-4.205h.711v4.205Z" transform="translate(-748.664 -526.615)" fill="#fff"/>
      <path id="Path_5285" data-name="Path 5285" d="M872.932,532.071V528.42H872.3v-.554h.627v-.447a1.966,1.966,0,0,1,.075-.63.91.91,0,0,1,.361-.449,1.3,1.3,0,0,1,.724-.172,3.5,3.5,0,0,1,.663.071l-.107.622a2.43,2.43,0,0,0-.418-.04.62.62,0,0,0-.458.139.751.751,0,0,0-.135.519v.388h.817v.554h-.817v3.651Z" transform="translate(-756.899 -526.167)" fill="#fff"/>
      <path id="Path_5286" data-name="Path 5286" d="M891.727,537.977l.734.091a1.8,1.8,0,0,1-.643,1,2.173,2.173,0,0,1-2.658-.212,2.224,2.224,0,0,1-.539-1.594,2.329,2.329,0,0,1,.545-1.647,1.84,1.84,0,0,1,1.413-.586,1.789,1.789,0,0,1,1.373.574,2.286,2.286,0,0,1,.533,1.616c0,.042,0,.106,0,.19h-3.126a1.62,1.62,0,0,0,.391,1.061,1.161,1.161,0,0,0,.876.368,1.084,1.084,0,0,0,.667-.206A1.362,1.362,0,0,0,891.727,537.977Zm-2.332-1.152h2.34a1.427,1.427,0,0,0-.268-.8,1.088,1.088,0,0,0-.881-.412,1.128,1.128,0,0,0-.823.329A1.3,1.3,0,0,0,889.395,536.825Z" transform="translate(-770.264 -533.427)" fill="#fff"/>
    </g>
    <g id="Group_3982" data-name="Group 3982" transform="translate(357.055 274.18)">
      <path id="Path_5287" data-name="Path 5287" d="M916.241,274.18a4.067,4.067,0,0,1,1.951.513,3.643,3.643,0,0,1,1.483,1.467,3.987,3.987,0,0,1,.008,3.962,3.693,3.693,0,0,1-1.467,1.47,3.987,3.987,0,0,1-3.949,0,3.7,3.7,0,0,1-1.47-1.47,3.968,3.968,0,0,1,.008-3.962,3.661,3.661,0,0,1,1.485-1.467A4.065,4.065,0,0,1,916.241,274.18Zm0,.657a3.376,3.376,0,0,0-1.628.429,3.072,3.072,0,0,0-1.239,1.225,3.3,3.3,0,0,0-.008,3.3,3.111,3.111,0,0,0,1.228,1.225,3.3,3.3,0,0,0,3.292,0,3.1,3.1,0,0,0,1.225-1.225,3.316,3.316,0,0,0-.008-3.3,3.056,3.056,0,0,0-1.239-1.225A3.381,3.381,0,0,0,916.241,274.837Zm-1.741,5.506v-4.27h1.467a3.588,3.588,0,0,1,1.088.118,1.056,1.056,0,0,1,.536.413,1.1,1.1,0,0,1,.2.626,1.137,1.137,0,0,1-.334.815,1.32,1.32,0,0,1-.886.389,1.172,1.172,0,0,1,.363.226,4.91,4.91,0,0,1,.631.847l.521.836h-.841l-.378-.673a3.457,3.457,0,0,0-.721-.994.885.885,0,0,0-.552-.147h-.405v1.814Zm.688-2.4h.836a1.348,1.348,0,0,0,.818-.179.614.614,0,0,0,.113-.813.631.631,0,0,0-.292-.223,2.176,2.176,0,0,0-.692-.073h-.784Z" transform="translate(-912.271 -274.18)" fill="#fff"/>
    </g>
  </g>
</svg>
